<?xml version="1.0"?>
<!--Icons from directory ""-->
<svg xmlns="http://www.w3.org/2000/svg" width="55" height="202" viewBox="0 0 55 202"><svg width="55" height="55" id="carrot" y="0"><path d="M54 15.9c-2.97.55-6.31 1.93-7.89 2.63a12.9 12.9 0 0 0-1.75-2.17l-4.88-4.87c-.67-.67-1.39-1.26-2.17-1.75.7-1.58 2.08-4.92 2.64-7.89.19-1.04 1.53-1.33 2.14-.48 1.06 1.45 2.1 3.31 1.79 4.71l7.23-2.9c.98-.39 1.95.59 1.56 1.56l-2.91 7.22c1.4-.31 3.27.73 4.72 1.79.85.62.55 1.96-.48 2.15zm-11.27 2.09c4.5 4.5 4.04 11.74-.56 15.71l-10.28-5.89 5.16 9.01-18.8 10.57-6.75-3.64 3.08 5.7-9.16 5.14c-.51.28-1.02.41-1.51.41-2.15 0-3.9-2.39-2.66-4.59l11.77-20.94 8.35 5.06-5.81-9.57 5.35-9.51c2.01-3.58 5.67-5.48 9.38-5.48 2.71 0 5.44 1.02 7.57 3.14l4.87 4.88z" fill="#252525"/></svg><svg width="54" height="54" id="earth" y="55"><path d="M41.08 37.4c.64.04 1.29.09 1.92.11a18.98 18.98 0 0 1-6.32 5.94 18.957 18.957 0 0 1-8.29 2.52c.3-.58.6-1.18.88-1.78 1.5-.18 2.99-.57 4.43-1.17a.3.3 0 0 0 .04-.08c.05-.18.21-.37.21-.37l-.08-.21.18-.26s.21-.34.34-.45c.13-.1 1.23-1.05 1.47-1.23.21-.16 1.12-.85 1.52-1.17.05-.04.1-.09.13-.11.27-.24.77-.87.95-1.16.08-.14.22-.47.35-.8.76.09 1.52.16 2.27.22zm-18.61 1.29c-.07-.01.02.04.08.07-.02-.04-.04-.07-.08-.07zm14.29-1.34c.19.02.44 0 .62 0h.06c.18 0 .34-.08.63-.24l.02-.01-.7-.09c-.23-.04-.47-.07-.7-.1.16.12.28.23.23.25-.14.05-.37.16-.16.19zm-14.21 1.41s.01 0 .01.01c.06.03.04.01-.01-.01zm5.92-14.15l.03.03c.01-.03-.03-.03-.03-.03zm6.32 4.17h-.04l-.03.15c-.17.62-.34 1.24-.52 1.86.15 0 .28.01.28.01s.16-.07.2-.27c.04-.2.16-.43.16-.43s.04.01.12.02c.04-.08.09-.2.09-.34 0-.28-.12-.34-.12-.5 0-.15.06-.53.06-.53l-.2.03zm-.83 2.84l-.09.28.13-.02s.04.09.08.21c.03-.06.05-.12.05-.12s0-.09-.04-.27c-.01-.03-.07-.06-.13-.08zm1.64-6.02l-.04-.02c-.1.38-.18.76-.28 1.13.07.04.02.05.29.06.37.02.11.02.39.02s.33.04.38-.08c.05-.12.06.06.06-.25s-.14-.44-.24-.53c-.1-.08-.27-.2-.56-.33zM53.59 34c-.84 3.16-10.02 3.54-21.66 1.21-3.81 11.27-8.72 19.05-11.87 18.2-1.99-.53-2.87-4.39-2.67-10.09.07.04.14.08.2.11-2.8-1.62-5.22-3.97-6.95-6.97a19.04 19.04 0 0 1-2.52-8.32c.56.29 1.12.57 1.69.85 2.04.97 4.18 1.87 6.35 2.67h-.01l.01.11-.32.56-.29.18.08.13.06.26h-.16v.58c0 .21.42.29.42.29l-.13.08s.02.13.15.34c.14.21.24.4.29.58.06.18.13.7.13.7s.35.58.5.82c.16.23.48.55.61.82.13.26.42.13.96.26.56.13.79.31.79.31s.29.24.47.35c.19.1.37.1.87.1.47 0 .16.03.74.12l.1.01c.7.1.15.05.81.36l.03.01c.16.07.25.11.29.13.06.12.03.35.05.45.03.13.21-.03.34-.03.1 0 .13.08.24.15.03.02.07.04.13.06.23.08.28-.08.28-.08l.27.32.21.28-.21.51-.18.18s.03-.24 0-.43c-.03-.18-.19.09-.19.09l-.15.5.57.55.17.16.38.34.02.07.22.62-.03.21.13.34s-.17.07-.32.1c-.05.02-.11.03-.15.03-.08 0-.17.09-.25.18-.08.1-.14.21-.14.21s.06.12.14.24c.06.08.12.16.2.21.03.03.07.04.1.07.03 0 .05.01.08.02 0 .01-.01.02-.02.03h.01l-.08.13c-.23.4-.52.88-.85 1.4a19.51 19.51 0 0 1-5.5-1.99l.01.01c.05 3.44.7 5.68 1.96 6.01 2.38.64 6.24-5.72 9.43-15.03-1.34-.3-2.7-.63-4.08-1.01C10.74 29.74-.29 23.53.71 19.8c.53-1.99 4.37-2.88 10.06-2.68-.06.12-.13.23-.19.34 1.62-2.86 4-5.35 7.04-7.11 3.04-1.76 6.36-2.58 9.63-2.56h-.35c2.67-5.04 5.36-7.93 7.34-7.4 3.72 1 3.57 13.68-.34 28.32-.37 1.39-.76 2.74-1.17 4.06 9.64 1.88 17.06 1.71 17.71-.68.34-1.26-1.27-2.93-4.22-4.7v-.02c-.05 1.97-.41 3.92-1.04 5.77-.61.03-1.17.04-1.63.04-.37 0-.66-.01-.83-.02-.49-.02-.99-.04-1.49-.07.09-.31.17-.54.18-.67.03-.16.12-.4.12-.4l-.59-.14-.07-.38-.24-.05-.23.44s-.18.27-.38.38c-.2.11-.47.13-.47.13l.06-.31c-.11-.05-.34.04-.34.04l-.02-.29s-.13-.3-.25-.32c-.11-.02-.29-.27-.29-.27s-.07-.09-.14-.27c0-.01-.01-.01-.02-.02l.04-.16s.21-.23.39-.44c.17-.21.23.21.41.36.18.15.12.39.12.39s.12.06.27.06c.15 0 .21.12.21.12l.3.11.3-.33s.06-.21.27-.21c.21 0 .03.27.03.43 0 .15.15 0 .57-.18.42-.18.23-.15.62-.37.39-.2.19-.14.33-.26.16-.12.27-.24.27-.24l.33.21.36-.06.36-.21v.27s-.24.3-.09.51c.15.21.18.15.09.42s-.03.27 0 .42c.03.11.03.12.03.19 1.36-4.46.95-9.45-1.56-13.8-1.2-2.09-2.77-3.83-4.57-5.2.05-.67.09-1.33.12-1.99 2.36 1.58 4.4 3.71 5.92 6.34 1.74 3.02 2.55 6.31 2.55 9.57v-.27c5.01 2.68 7.9 5.37 7.37 7.36zM30.74 13.22s.19-.11.29-.15c.09-.04 0-.05-.1-.12-.09-.06-.21.06-.21.06s-.06.05-.11.17c0 .01-.01.02-.01.03-.05.06-.11-.1-.12-.19-.02-.09-.36-.03-.35-.03.01 0 .08.17.08.17s.03.17.03.23c0 .07 0 .19.05.27.05.08.2.21.2.21l.11-.07.04-.03.16-.27.13-.12-.19-.16zm-2.14-1.19s.02-.19.13-.17c.1.02.21-.25.21-.25s-.09-.17-.19-.17c-.11 0-.34.03-.34.03l-.06-.13s-.13-.02-.3.04c-.17.06-.21-.08-.21-.08l-.02-.26-.23.07-.17-.15s-.06-.13.04-.13.25.02.25.02l.21-.15-.08-.16.14-.17s-.29-.15-.35-.04c-.07.1-.3.19-.3.19s.02-.07-.1-.23c-.13-.17.06-.26-.21-.19-.17.03-.3.11-.37.17-.06.04-.1.08-.1.08s-.29.06-.31.17c-.02.1.36.16.36.16s.02-.03.05-.05c.05-.06.15-.15.22-.07.11.1.19.23.19.23l-.4.21-.01-.01-.2-.16h-.4l-.19.09-.38.04s.07.19.07.29c0 .11-.17.22-.17.22l-.23-.02-.02-.01-.24.17s-.25.02-.36.1c-.01.02-.03.03-.05.03-.1.03-.2-.04-.2.1 0 .17.02.25-.1.28-.03 0-.06.01-.1.02-.13.03-.3.06-.3.06s-.13.06-.23.17c-.1.1-.34.17-.34.17l-.03-.01-.39-.08-.54.23-.02.04-.11.26-.36.04s-.3.15-.32.26c-.01.05-.06.1-.11.13-.05.04-.1.06-.1.06s-.21.08-.31.16c-.11.08-.23.25-.23.25l-.09.19.15.22-.34.04.04.16c.17.17.28.26.38.17.1-.08.04-.15.17-.19.07-.03.21-.07.32-.11.08-.03.16-.06.2-.08.11-.04.28-.19.4-.19.13 0 .25-.02.25-.02l.05-.04.29-.23.34.15.27-.04s0 .07.05.12c.02.02.04.03.08.04.12.04.31.04.31.04s.11-.14.26-.14h.37l.04-.19.24.11.04.01.19.15s-.09.02.12.11c.13.05.25.03.32.01.05-.02.08-.04.08-.04l.36.09s.02-.34-.08-.34c-.11 0-.32-.1-.32-.1l.23-.09.26-.04.06.28.4-.13-.06-.23.02-.36.38.06.02.25s.07.04.15.05c.09.03.18.03.18-.05 0-.15-.08-.25.03-.25.1 0 .31-.06.31-.06l.1-.15.15-.34.17.25.23-.15-.04-.21.5-.23s.3-.04.43-.04c.12 0 .16-.04.16-.04s.09-.17-.04-.17c-.12 0-.22-.1-.22-.1zm-5.03 8.17l-.21.1.49.23.23.01.18.01s.13-.21.15-.42c.01-.1.04-.14.07-.17.05-.03.11-.06.21-.12.16-.13.12-.17.08-.3-.03-.09-.2-.08-.29-.07-.03 0-.05.01-.05.01l-.35.17-.03.02-.16-.22-.24.07-.23.23c-.02-.02.15.02.15.02s.06-.02.23 0c.17.03-.04.17-.04.17l-.34.09.15.17zm.8-4.94l-.29.02s-.06.3 0 .48c.01.01.01.02.02.03.06.12.18.24.38.27.09.01.18.01.29-.02.19-.04.25-.05.26-.05L25 16s.04-.01.03-.01l.13-.05.16-.07s.27-.16.27-.31-.23-.1-.42-.1h-.01c-.18-.01-.16-.03-.24-.24-.09-.21-.09.13-.09.13s-.08-.02-.16-.21c-.09-.19-.11-.34-.11-.34l-.07.04-.24.13.06.12.06.17zm-.21 6.05s.08.11.21.28c.05.07.09.05.11 0 .04-.07.06-.17.12-.17.1 0 .02.17.15.15.13-.02.4-.02.4-.02h.01l.18.21s.21-.11.23-.21c.02-.11.02-.11.19-.11s.1-.02.31-.19c.22-.16-.06-.31-.23-.4-.17-.08-.02-.23-.02-.23l.02-.3s0-.1-.02-.25-.06-.25-.09-.4c-.02-.15-.16-.11-.16-.11v-.19s.31 0 .42-.04c.1-.04 0-.25 0-.25s-.25-.1-.44-.17c-.19-.06-.07-.1.25-.12.31-.02.04-.17.04-.17l-.25-.15s-.13.17-.34.25c-.04.02-.07.04-.1.06-.07.08-.02.16-.09.26v.17l.09.15.06.1s-.02.09-.06.18a.61.61 0 0 1-.07.14c-.08.12.05.27.05.27s0 .28-.05.43c-.04.14-.36-.13-.36-.13l-.06.36h-.18-.11l.04.19.07.05.12.1.12.19-.24-.09-.11-.04-.21.2zm-3.3-9.51l-.36.38s.31.06.42.04c.06-.01.23-.13.41-.25.13-.09.26-.17.35-.23.23-.15.32-.11.32-.11l.08.17-.5.3.59-.09.07-.06.22-.21.24-.28.35.02.14-.05.3-.11s.26-.17.36-.36c.08-.15.14-.07.24-.04.03.01.06.01.1 0 .17-.04.09-.19.09-.34 0-.07.09-.08.22-.08.12 0 .26.02.32-.03.13-.09-.1-.25-.27-.3l-.05-.01c-.14-.03-.21-.05-.22-.18-.02-.07-.1-.1-.19-.09-.08 0-.17.03-.23.07-.13.09-.38.11-.3-.06.01-.03.03-.03.04-.05-.65.13-1.3.31-1.95.53.15-.01.21 0 .31 0 .12 0-.13.15-.13.15s-.38.13-.48.22l-.02.01c-.09.08-.04.22-.04.22h.04c.07 0 .19-.01.27-.02.1-.03.19-.07.46-.24.09-.05.14-.08.18-.09.08-.04.08-.02.18-.08.14-.08.04.24.04.24l.4-.15.32-.02h.12l.12-.24-.24-.05-.13-.03.12-.13h.01c.06 0 .42 0 .54.03.13.01 0 .16 0 .16l-.04.17-.15.27s-.19.03-.33.03h-.02c-.14.01-.3.16-.3.16l-.29.21h-.36-.07l-.06.24-.34-.04s-.04-.11-.06-.26c-.02-.15-.17 0-.17 0s-.06.25-.2.36c-.03.02-.06.04-.09.04-.21.05-.38.26-.38.26zm4.58-2.23c-.18.01-.36.03-.54.05.03.01.04.02.1.03.13.02.02.06.02.16 0 .07.03.1.14.12.05.01.12.02.22.03.3.04.11-.08.07-.33-.01-.03-.01-.05-.01-.06zm-1.13.24s.02-.04.04-.1c-.03 0-.06.01-.09.01.04.04.05.09.05.09zm2.41-.33c-.02.05-.04.1-.03.17.02.19.06 0 .19-.04.07-.03.09-.06.1-.13h-.26zm-12.33 5.59l.26.02.34-.21.33.1-.19.09s-.18.27-.23.4c-.04.12.51.1.51.1s.14-.4.14-.57c0-.16.45-.27.45-.27l.12-.34.21.15s.13-.23.11-.34c-.03-.1-.4-.13-.4-.13l.37-.18.38.1-.08.74h.37l.09.13s-.53.29-.63.29c-.1 0-.34.28-.34.28l-.21.23s.09.13.25.17c.17.04.17.14.17.14s.23-.08.23-.21c0-.12-.08-.16-.08-.16s.18-.22.31-.36c.13-.15.8-.45.93-.59.12-.15.04-.25.04-.25l.31-.2s.09-.4.13-.5c.04-.1.48-.32.8-.55.31-.23.36-.25.77-.36.43-.1.13-.15.11-.27-.02-.13-.36.16-.36.16l-.5-.15s.21 0 .42-.16c.21-.17.16-.04.31-.11.15-.06.11-.12.11-.12h.23s.19-.19.3-.36c.1-.17.33-.49.33-.49s-.52.3-.63.34c-.1.04-.27-.04-.4-.04s-.31.21-.53.29c-.21.09-.44.22-.44.22l-.31-.07-.25.11-.61.25s.1-.08.36-.23l.5-.3.4-.1.03-.21c-.16.09-.32.17-.48.26-1.54.9-2.9 2.01-4.05 3.26zm15.83 17.17c.43-1.35.83-2.75 1.22-4.19 3.41-12.74 3.8-23.71.88-24.49-1.25-.34-2.92 1.27-4.68 4.23h-.06c1.98.05 3.93.4 5.79 1.05.04.61.04 1.17.04 1.62 0 .37-.01.67-.01.84-.06 1.6-.21 3.24-.42 4.89a.938.938 0 0 0-.24-.06c-.23-.01-.23 0-.23 0s-.19-.16-.26-.27c-.07-.12-.21-.21-.47-.3s-.24.1-.24.1-.25.17-.56.14c-.3-.03-.38.3-.38.33l-.23.19s-.12.21-.26.21-.24.04-.24.04-.07.26-.07.4-.14.16-.14.16-.18.03-.3.08-.24.13-.36.19c-.13.07-.07.13-.32.27-.24.13-.33.19-.33.19l-.33.07.17.17-.26.05s-.02.16.02.28c.03.12.3.14.3.14s-.17.14-.39.23c-.2.09-.2.12-.19.21.02.09.14.28.49.37.35.09.1-.02.26-.11s.33-.14.33-.14.21.35.21.51c0 .15-.05.45-.03.56.02.1.19-.04.19-.04l-.16.18s.04.31.04.4c0 .09.31.03.31-.05 0-.09.17-.23.43-.25.26-.01.23-.05.23-.26 0-.21.05-.49.05-.49l.3-.08s.17-.13.28-.24c.03-.03.05-.05.07-.08.03-.05-.01-.11-.07-.16-.06-.05-.12-.09-.16-.13-.09-.09-.12-.37-.12-.54 0-.18 0-.11.02-.23.01-.11.14-.12.26-.15.01 0 .02 0 .03-.01.12-.03.28-.24.5-.35.23-.11-.12-.12-.12-.12s.04-.19.07-.35c.04-.16.49.05.49.05l.17.21-.21.16-.24.36-.34.46.28.73s.24.12.39.1c.17-.02.34-.1.44-.19.04-.04.27-.1.51-.15l-.08.49c-.08.03-.17-.04-.37-.04-.27 0-.34.13-.59.15-.25.03-.1.2-.1.32 0 .13.35.28.35.28l-.27.17s-.13-.27-.37-.25c-.24.03-.15.35-.3.47s.1.5.1.5-.18.02-.34.11l-.06.03c-.17.12-.22.03-.22.03s-.1-.15-.22-.15-.3.2-.42.24c-.13.05-.55 0-.55 0l-.27-.29-.22.22s-.2-.05-.32-.2c-.12-.15 0-.12-.03-.24-.02-.13-.07-.13-.07-.13l.12-.19.32-.2s.07-.44-.07-.64c-.15-.2-.15.2-.15.2l-.5.32.03.66-.1.3-.19-.05-.13.15s-.12-.07-.32-.15c-.19-.07-.54.25-.54.25l-.04.11-.08.18-.27-.05-.15.18h-.3c-.13 0-.05.22-.05.22s-.08.1-.18.14l-.04-.06c-.15-.02-.18 0-.27.07-.04.03-.1.05-.16.07l-.13.02-.13-.32s-.09-.17-.17-.04c-.09.13-.06.22-.06.22l.04.22-.18.02-.04-.02-.09-.02-.31-.19-.04-.03s-.22-.03-.18.11c.03.14.21.32.21.41 0 .01.01.02.02.03.05.06.31.04.31.15 0 .13-.17.28-.17.28s.13.1.13.27c0 .16-.04.39-.07.5-.04.1-.13.07-.16.18-.01.03-.03.05-.05.08-.05.1-.13.19-.13.19s-.27.07-.36.03c-.1-.03-.17-.16-.33-.2a.139.139 0 0 0-.09 0c-.06.01-.07.04-.23-.07-.22-.14-.29-.2-.43-.25-.14-.05-.22-.18-.22-.18l-.06-.04c-.07-.03-.17-.08-.22-.08-.09 0-.24.16-.24.16s.04.14 0 .32c-.03.18.04.27-.07.34-.1.08-.12.02-.14.17-.02.14.07.07-.07.21-.13.13-.07.13-.17.2-.01 0-.02.01-.03.02-.15.09-.2.07-.29.22-.09.14-.12.3-.12.43 0 .12.39.57.39.57s.02.01.05.02c.07.02.17.06.17.15 0 .13-.15.18 0 .27.14.09.07.11.16.16.04.03.31.09.58.14.29.06.58.11.58.11l.2-.14h.34l.09-.31.27-.01.02-.29s-.03-.29.05-.29c.05 0 .18-.08.3-.15.13-.08.24-.16.24-.16s.07.01.16.03c.14.02.33.03.38-.01.09-.07.29-.36.29-.36s-.04-.23.01-.33c.01-.03.03-.05.06-.05.14 0 .49.02.59.13.11.1.38.25.49.23.09-.02.24-.11.35-.19l.04-.03c.04-.03.15-.1.27-.19v.01s.25.04.33.17c.07.12.1.36.07.5-.04.14.23.27.32.38.09.1.52.68.66.86.15.18.44.5.44.5l.14.34-.3.22s-.33-.02-.44-.05c-.1-.04-.19.07-.19.07s-.08-.04-.24-.18c-.16-.14-.05.02-.25.13-.19.1.25.27.36.36.11.09.25.25.32.34.08.09.26-.03.26-.18 0-.14.02-.27.02-.27h.32l.2-.23.16-.14.07-.2-.12-.36s.22-.08.3-.08c.09 0 .18.27.18.27l.09.04s0-.22-.05-.31c-.06-.09-.34-.3-.34-.3s-.33-.13-.42-.2c-.09-.07-.3-.45-.41-.64-.11-.2-.04-.22-.06-.31-.01-.09-.2-.2-.27-.32-.07-.13-.05-.31-.05-.31s.16-.1.34-.21c.07-.04.1-.07.1-.08.07.07.26.29.26.42 0 .16.07.34.11.45.03.1.25.19.54.25.29.05.19.25.19.25s.27.32.31.54c.03.22.03.32.05.59.02.27.15.31.23.56.09.25.13.25.18.45.03.09.04.18.08.27-.18.66-.37 1.33-.57 2-.17.15-.29.72-.29.72s-.05.04-.13.05l-.37-.09c-.19-.2-.63-.28-.86-.43-.23-.16-.23-.5-.42-.66-.18-.16-.31-.08-.31-.08s-.52-.1-.63-.23c-.06-.07-.15-.18-.23-.26-.06-.08-.11-.14-.11-.14s.05-.05.11-.1a.8.8 0 0 1 .25-.16c.13-.03-.05-.29-.21-.55-.16-.27.42-.35.4-.48-.03-.12-.28-.13-.44-.2l-.01-.01c-.16-.08-.52 0-.52 0l-.5-.1s-.16.05-.29.1c-.05.02-.11.01-.17-.02a.584.584 0 0 1-.3-.3c-.07-.14-.22-.11-.37-.12a.556.556 0 0 1-.21-.06.38.38 0 0 0-.19-.06c-.11.01-.22.07-.36.09-.17.02-.4.08-.55.1-.03 0-.06.01-.08.01-.13 0-.29.1-.47.21-.18.1-.24-.29-.24-.29s-.05 0-.15-.02a2.74 2.74 0 0 1-.48-.14c-.39-.16-.21-.4-.21-.4l-.22.19c-.05.05-.1.1-.17.15-.26.24-.34.35-.58.32-.23-.03-.36.08-.52.16-.14.07-.47.63-.51.72-3.13-1.07-6.22-2.34-9.01-3.82-.12-.07-.32-.18-.56-.31-.42-.24-.97-.56-1.55-.94.37-1.95 1.05-3.83 2-5.58-.01.03-.02.05-.03.07-3.44.05-5.66.7-6 1.96-.78 2.92 8.89 8.06 21.6 11.48 1.44.37 2.85.71 4.23 1.02zm-3.86-5.38c-.09.03-.09.23-.09.23s.07.08.16.1c.06.01.13.01.22-.01.04-.01.09-.03.15-.04.17-.05.07-.14.11-.26.03-.13.03-.29.1-.41s-.14-.21-.14-.21-.16.23-.22.32l-.01.01c-.05.09-.19.23-.28.27zm.29-.95c.09-.01.3-.07.34-.18.05-.14.04-.07.09-.23.06-.16-.14.05-.14.05l-.23.14-.06.14-.04.09s.01 0 .04-.01z" fill="#252525"/></svg><svg width="55" height="49" id="hand" y="109"><path d="M40.78 48.3c-2.16-3.71-5.36-5.4-9.58-5.38-2.4.02-4.8-.08-7.19.03-2.11.1-4.07-.22-5.92-1.26-.87-.49-1.85-.65-2.81-.87-2.34-.53-4.61-1.23-6.95-1.81-3.28-.81-4.06-1.28-6.48-2.24-.4-.15-.88-.03-1.07-.52-.18-.47-.21-.96.13-1.36.59-.7 1.18-1.03 2.23-.97.08 0 .18 0 .24-.04 1.89-1.06 1.89-.34 3.81-.18l5.42.69c.95-.07 8.11 1.67 8.52.85-2.22 0-4.8-1.73-4.48-2.15.56-.74 1.35-1.07 2.3-1.07 2.21.01 4.38.08 6.55.73 1.62.49 3.3.41 4.99-.26 2.75-1.11 5.71-1.47 8.31.22 3.21 2.09 6.25 4.44 8.57 7.59 2.7 3.67 4.01 4.51 6.96 7.97l-13.55.03zm2.61-33.42c-.39.41-.8.96-1.24 1.57-.87 1.19-2.03 2.47-3.55 3.39-.76.46-1.57.87-2.43 1.15-.85.3-1.73.49-2.55.59-.74.09-2.42.31-2.94.29.4-.61.82-1.23 1.3-1.8.32-.43.69-.8 1.04-1.18.35-.39.75-.71 1.11-1.05.38-.31.77-.58 1.14-.85.4-.22.78-.43 1.12-.62.37-.13.71-.26 1.02-.37.29-.14.58-.14.81-.2.46-.08.72-.13.72-.13s-.26.03-.73.08c-.23.04-.52.02-.83.14-.32.09-.68.19-1.07.31-.37.17-.76.35-1.19.54-.39.25-.82.5-1.24.79-.39.32-.83.62-1.22.99-.38.37-.8.73-1.15 1.13-.42.46-.81.92-1.19 1.39 0-.07-.01-.14-.01-.21-.01-.69.13-1.56.42-2.47.31-.9.8-1.82 1.45-2.66.65-.86 1.5-1.61 2.45-2.21.96-.6 2.03-1.05 3.16-1.26 1.12-.23 2.29-.22 3.31.01s1.88.69 2.37 1.15c.25.2.41.46.51.6l.14.25s-.08.05-.22.15c-.13.1-.32.31-.51.49zm-13.46 7.47c-.16.26-.3.52-.44.77 5.32.87 9.7 4.52 11.62 9.41-.35-.24-.7-.47-1.03-.69-2.7-1.76-6.03-1.9-9.83-.38-1.32.53-2.62.61-3.89.22-2.41-.73-4.8-.79-7.05-.8-1.5 0-2.74.6-3.6 1.73-.21.28-.33.61-.36.96-1.16-.21-1.83-.32-2.28-.32l-.36-.04c1.73-5.11 6.1-8.99 11.48-10.01l-.29-.52c-.15-.24-.45-.88-.41-1.04.02-.09.01-.18.02-.27-.38-.47-.77-.94-1.19-1.39-.36-.41-.77-.76-1.16-1.13-.39-.37-.83-.67-1.22-.99-.42-.29-.84-.54-1.23-.79-.43-.19-.83-.38-1.2-.55-.39-.11-.74-.22-1.06-.31-.31-.11-.6-.09-.84-.13l-.73-.08s.27.05.73.13c.22.06.51.06.81.19.3.12.64.24 1.02.38.34.19.72.4 1.11.62.37.27.76.54 1.15.85.36.34.76.66 1.11 1.04.34.39.72.76 1.03 1.18.48.58.91 1.19 1.3 1.81-.51.02-2.19-.2-2.93-.29-.82-.1-1.7-.29-2.55-.59-.86-.28-1.68-.69-2.43-1.15-1.52-.93-2.68-2.2-3.56-3.39-.44-.61-.84-1.16-1.24-1.57-.18-.18-.37-.39-.51-.49-.14-.1-.21-.16-.21-.16s.05-.08.14-.24c.09-.14.25-.4.5-.6.49-.46 1.36-.92 2.38-1.16 1.02-.23 2.19-.23 3.3 0 1.14.21 2.21.66 3.17 1.26.95.6 1.8 1.35 2.44 2.21a8.81 8.81 0 0 1 1.45 2.66c.3.91.44 1.78.43 2.46 0 .08-.01.15-.01.22.46.58.87 1.16 1.25 1.72.74-.11 1.5-.17 2.28-.17.09 0 .18.02.27.02.11-.5.21-1.01.31-1.54.06-.37.32-1.27.49-1.39.1-.08.17-.17.26-.26-.05 1.14-.17 2.23-.31 3.25.27.02.54.03.8.06.43-.65.92-1.34 1.46-2.02 0 .09 0 .18.02.28.04.15-.26.79-.41 1.03zm.35-5.62c-.49 1.16-1.11 2.14-1.71 2.82-.06.08-.14.13-.2.2.03-.79.05-1.6.02-2.41 0-.72-.1-1.43-.16-2.14-.07-.7-.24-1.38-.35-2.04-.17-.65-.38-1.27-.55-1.86-.26-.56-.49-1.09-.71-1.58-.29-.45-.55-.86-.79-1.23-.21-.38-.52-.62-.72-.86-.41-.46-.66-.71-.66-.71s.23.27.61.76c.17.25.47.5.64.89.21.38.44.8.69 1.26.17.5.37 1.03.57 1.59.13.59.29 1.2.4 1.84.06.65.19 1.32.2 2 .01.69.06 1.38 0 2.08-.02.99-.14 1.97-.28 2.92-.53-.42-2.01-2.11-2.66-2.83-.73-.82-1.44-1.78-2.02-2.81-.62-1.03-1.07-2.14-1.42-3.26-.71-2.24-.75-4.52-.59-6.46.09-.99.17-1.9.14-2.65-.04-.34-.04-.71-.09-.92-.05-.23-.08-.35-.08-.35s.12-.04.35-.11c.22-.06.6-.18 1.03-.17.88-.03 2.14.26 3.36.92 1.22.66 2.38 1.67 3.3 2.87.94 1.19 1.61 2.58 2.05 4 .42 1.43.62 2.91.51 4.32a11.66 11.66 0 0 1-.88 3.92z" fill="#252525"/></svg><svg width="47" height="44" id="icon" y="158"><path d="M44.42 33.04H18.24c-3.05 0-5.72-1.95-6.65-4.84L4.38 5.84a.241.241 0 0 0-.23-.16H2.58C1.24 5.68.15 4.59.15 3.25S1.24.82 2.58.82h1.57C6.37.82 8.32 2.24 9 4.35l7.21 22.36c.28.88 1.1 1.47 2.03 1.47h26.18c1.34 0 2.43 1.09 2.43 2.43s-1.09 2.43-2.43 2.43zm-2.62-9.08c-.18.74-.84 1.27-1.61 1.27h-20.3c-.72 0-1.36-.47-1.58-1.15L13.32 8.47c-.26-.81-.12-1.7.38-2.39.5-.68 1.3-1.09 2.15-1.09h27.12c.82 0 1.59.38 2.09 1.02.51.64.69 1.48.5 2.27L41.8 23.96zM19.96 35.84c2.13 0 3.87 1.73 3.87 3.87s-1.74 3.87-3.87 3.87c-2.14 0-3.87-1.73-3.87-3.87s1.73-3.87 3.87-3.87zm20.33 0c2.13 0 3.87 1.73 3.87 3.87s-1.74 3.87-3.87 3.87c-2.14 0-3.87-1.73-3.87-3.87s1.73-3.87 3.87-3.87z" fill="#252525"/></svg></svg>
